<svg xmlns="http://www.w3.org/2000/svg" viewBox="0 0 128 128" role="img" aria-labelledby="title desc">
  <title id="title">Tomato icon</title>
  <desc id="desc">A simple flat tomato icon with green leaves.</desc>
  <circle cx="64" cy="72" r="43" fill="#E53935"/>
  <path d="M31 66c4-22 20-36 41-36 12 0 23 5 31 13-8-13-22-22-39-22-25 0-46 18-50 42-4 26 14 50 40 55-18-9-27-29-23-52z" fill="#F4511E" opacity=".45"/>
  <circle cx="47" cy="58" r="7" fill="#FFCDD2" opacity=".45"/>
  <path d="M64 34c-8-13-21-19-34-18 8 6 12 13 12 21-9-4-19-4-29 0 10 4 17 10 21 18-9 1-17 6-23 14 13-3 23-2 31 4 4-10 11-17 22-20 11 3 18 10 22 20 8-6 18-7 31-4-6-8-14-13-23-14 4-8 11-14 21-18-10-4-20-4-29 0 0-8 4-15 12-21-13-1-26 5-34 18z" fill="#2E7D32"/>
  <path d="M64 34c-4-7-9-12-15-15 6 8 8 15 6 23-8-5-16-7-26-6 10 4 17 10 21 18-7 2-13 6-18 11 10-2 18-1 25 4 2-9 5-16 7-35z" fill="#43A047" opacity=".75"/>
  <path d="M64 40c-5 0-9-4-9-9s4-9 9-9 9 4 9 9-4 9-9 9z" fill="#1B5E20"/>
</svg>
